# xmcd
#
# Track frame offsets:
#	150
#	3490
#	33298
#	52412
#	71095
#	88533
#	106193
#	125031
#	147660
#	166296
#
# Disc length: 2446 seconds
#
# Revision: 1
# Processed by: cddbd v1.5.2PL0 Copyright (c) Steve Scherf et al.
# Submitted via: EZCDAudioConverter 2.8.0.1
#
DISCID=8f098c0a
DTITLE=김윤아 - 타인의 고통
DYEAR=2016
DGENRE=
TTITLE0=
TTITLE1=강
TTITLE2=유리
TTITLE3=키리에
TTITLE4=독
TTITLE5=은지
TTITLE6=꿈
TTITLE7=타인의 고통
TTITLE8=안녕
TTITLE9=다 지나간다
EXTD=
EXTT0=
EXTT1=
EXTT2=
EXTT3=
EXTT4=
EXTT5=
EXTT6=
EXTT7=
EXTT8=
EXTT9=
PLAYORDER=
